<svg width="1552" height="447" viewBox="0 0 1552 447" fill="none" xmlns="http://www.w3.org/2000/svg">
<path d="M125 338.5L281 254L288 268.5L135 351L125 338.5Z" fill="#BFD8FF"/>
<path d="M271 195.5C288.42 207.364 307 249 281.5 263M132 343.5C101 357 82.5005 325.5 82.5005 307" stroke="#BFD8FF" stroke-width="16"/>
<path d="M91 152L126.5 175.5V199L90.5 178.5L91 152Z" fill="#BFD8FF"/>
<path d="M132.888 270.769L134.444 174.658L218.882 223.686L132.888 270.769Z" stroke="#007EF3" stroke-width="16"/>
<path d="M208.166 218.391L86.2489 139.876C84.9179 139.019 83.166 139.975 83.166 141.558V223.891L82.166 305.391" stroke="#007EF3" stroke-width="16"/>
<path d="M127.166 328.891C111.666 337.039 82.166 327.391 82.166 304.891" stroke="#007EF3" stroke-width="16"/>
<path d="M90.666 84.3907C100.032 60.3505 135.666 50.8907 155.666 63.8907" stroke="#007EF3" stroke-width="16"/>
<path d="M272.666 197.391C290.666 208.891 292.166 240.891 267.666 253.891" stroke="#007EF3" stroke-width="16"/>
<path d="M32.1666 130.391C32.1664 86.3907 84.6665 77.3908 106.666 91.3907" stroke="#007EF3" stroke-width="16"/>
<path d="M139.666 378.391C83.729 408.337 31.1861 352.741 31.6663 317.891" stroke="#007EF3" stroke-width="16"/>
<path d="M308.666 161.391C366.666 198.391 342.166 270.391 312.166 286.391" stroke="#007EF3" stroke-width="16"/>
<path d="M126.166 329.391L267.666 253.891" stroke="#007EF3" stroke-width="16"/>
<path d="M272.666 197.391L106.666 91.3908" stroke="#007EF3" stroke-width="16"/>
<path d="M32.166 130.391L31.666 318.391" stroke="#007EF3" stroke-width="16"/>
<path d="M139.667 378.391L312.167 286.391" stroke="#007EF3" stroke-width="16"/>
<path d="M308.666 161.391L155.518 63.7654" stroke="#007EF3" stroke-width="16"/>
<path d="M387.862 161.303V290H407.84V246.031H435.488C460.728 246.031 478.476 228.729 478.476 203.578C478.476 178.516 461.084 161.303 436.112 161.303H387.862ZM407.84 178.16H430.85C448.152 178.16 458.052 187.435 458.052 203.667C458.052 219.899 448.152 229.264 430.761 229.264H407.84V178.16ZM483.392 290H502.656V161.303H483.392V290ZM544.317 276.354C533.971 276.354 527.193 271.003 527.193 262.798C527.193 254.771 533.704 249.688 545.209 248.885L568.308 247.458V254.86C568.308 267.079 557.784 276.354 544.317 276.354ZM538.966 291.605C551.274 291.605 563.136 285.006 568.576 274.571H569.022V290H587.484V225.339C587.484 206.521 572.946 194.481 550.204 194.481C527.015 194.481 512.567 206.967 511.496 223.912H529.691C531.385 215.529 538.342 210.178 549.49 210.178C561.263 210.178 568.308 216.421 568.308 226.856V234.08L542.623 235.596C520.326 236.845 507.751 246.923 507.751 263.333C507.751 280.189 520.593 291.605 538.966 291.605ZM675.789 228.461C674.095 209.999 659.379 194.481 635.209 194.481C608.542 194.481 591.062 213.299 591.062 243.088C591.062 273.411 608.542 291.784 635.388 291.784C657.952 291.784 673.917 278.227 675.968 258.249H657.417C655.187 269.13 647.428 275.641 635.566 275.641C620.583 275.641 610.683 263.69 610.683 243.088C610.683 222.931 620.494 210.534 635.388 210.534C647.963 210.534 655.455 218.472 657.417 228.461H675.789ZM717.896 209.999C731.364 209.999 740.461 220.077 740.907 234.437H693.994C694.975 220.256 704.429 209.999 717.896 209.999ZM740.817 262.441C738.231 270.646 730.115 276.176 719.145 276.176C703.716 276.176 693.905 265.384 693.905 249.063V247.904H760.171V241.304C760.171 212.853 743.939 194.481 717.896 194.481C691.408 194.481 674.462 214.102 674.462 243.534C674.462 273.144 691.14 291.784 718.699 291.784C740.193 291.784 756.425 279.565 759.101 262.441H740.817ZM764.909 290H784.173V235.774C784.173 220.969 792.913 211.159 807.183 211.159C820.74 211.159 827.696 219.453 827.696 233.277V290H847.05V229.531C847.05 208.305 834.742 194.57 814.14 194.57C799.87 194.57 789.613 200.902 784.441 211.872H783.995V161.303H764.909V290ZM895.043 291.784C921.888 291.784 939.547 273.322 939.547 243.088C939.547 212.942 921.799 194.481 895.043 194.481C868.287 194.481 850.539 212.942 850.539 243.088C850.539 273.322 868.198 291.784 895.043 291.784ZM895.043 275.908C879.97 275.908 870.16 263.957 870.16 243.088C870.16 222.307 879.97 210.356 895.043 210.356C910.116 210.356 919.926 222.307 919.926 243.088C919.926 263.957 910.205 275.908 895.043 275.908ZM944.196 290H963.46V161.303H944.196V290ZM1007.53 291.605C1021.17 291.605 1031.88 284.738 1037.41 274.036H1037.76V290H1056.49V161.303H1037.14V211.783H1036.78C1031.52 201.437 1020.82 194.659 1007.35 194.659C983.805 194.659 968.109 213.478 968.109 243.088C968.109 272.698 983.805 291.605 1007.53 291.605ZM1012.61 210.891C1027.42 210.891 1037.32 223.645 1037.32 243.088C1037.32 262.709 1027.42 275.284 1012.61 275.284C997.362 275.284 987.819 262.887 987.819 243.088C987.819 223.377 997.362 210.891 1012.61 210.891ZM1104.58 209.999C1118.04 209.999 1127.14 220.077 1127.59 234.437H1080.67C1081.65 220.256 1091.11 209.999 1104.58 209.999ZM1127.5 262.441C1124.91 270.646 1116.79 276.176 1105.82 276.176C1090.39 276.176 1080.58 265.384 1080.58 249.063V247.904H1146.85V241.304C1146.85 212.853 1130.62 194.481 1104.58 194.481C1078.09 194.481 1061.14 214.102 1061.14 243.534C1061.14 273.144 1077.82 291.784 1105.38 291.784C1126.87 291.784 1143.1 279.565 1145.78 262.441H1127.5ZM1150.87 290H1170.14V233.812C1170.14 220.523 1177.81 212.229 1190.21 212.229C1193.95 212.229 1197.34 212.675 1198.86 213.299V195.373C1197.43 195.105 1195.02 194.659 1192.26 194.659C1181.2 194.659 1172.81 201.17 1169.69 212.14H1169.25V196.175H1150.87V290Z" fill="#124597"/>
<path d="M1254.07 290V178.516H1293.41V161.303H1194.68V178.516H1234.1V290H1254.07ZM1312.68 209.999C1326.15 209.999 1335.24 220.077 1335.69 234.437H1288.78C1289.76 220.256 1299.21 209.999 1312.68 209.999ZM1335.6 262.441C1333.02 270.646 1324.9 276.176 1313.93 276.176C1298.5 276.176 1288.69 265.384 1288.69 249.063V247.904H1354.96V241.304C1354.96 212.853 1338.72 194.481 1312.68 194.481C1286.19 194.481 1269.25 214.102 1269.25 243.534C1269.25 273.144 1285.92 291.784 1313.48 291.784C1334.98 291.784 1351.21 279.565 1353.88 262.441H1335.6ZM1439.52 228.461C1437.82 209.999 1423.1 194.481 1398.94 194.481C1372.27 194.481 1354.79 213.299 1354.79 243.088C1354.79 273.411 1372.27 291.784 1399.11 291.784C1421.68 291.784 1437.64 278.227 1439.69 258.249H1421.14C1418.91 269.13 1411.15 275.641 1399.29 275.641C1384.31 275.641 1374.41 263.69 1374.41 243.088C1374.41 222.931 1384.22 210.534 1399.11 210.534C1411.69 210.534 1419.18 218.472 1421.14 228.461H1439.52ZM1443.09 290H1462.36V235.774C1462.36 220.969 1471.1 211.159 1485.37 211.159C1498.92 211.159 1505.88 219.453 1505.88 233.277V290H1525.23V229.531C1525.23 208.305 1512.93 194.57 1492.32 194.57C1478.05 194.57 1467.8 200.902 1462.63 211.872H1462.18V161.303H1443.09V290Z" fill="#007EF3"/>
</svg>
